<?xml version="1.0" standalone="no"?>
<!DOCTYPE svg PUBLIC "-//W3C//DTD SVG 20010904//EN"
 "http://www.w3.org/TR/2001/REC-SVG-20010904/DTD/svg10.dtd">
<svg version="1.0" xmlns="http://www.w3.org/2000/svg"
 width="480.000000pt" height="360.000000pt" viewBox="0 0 480.000000 360.000000"
 preserveAspectRatio="xMidYMid meet">
<metadata>
Created by potrace 1.12, written by Peter Selinger 2001-2015
</metadata>
<g transform="translate(0.000000,360.000000) scale(0.100000,-0.100000)"
fill="#000000" stroke="none">
<path d="M1529 2883 c-292 -301 -545 -619 -637 -802 -43 -86 -47 -100 -47
-165 0 -62 5 -82 38 -151 77 -162 245 -386 527 -705 70 -80 158 -174 194 -209
l67 -63 67 7 c293 30 912 213 1317 390 492 214 783 434 842 634 36 126 -5 230
-146 372 -256 257 -817 523 -1501 713 -180 50 -417 101 -521 111 l-65 6 -135
-138z m393 -152 c146 -49 279 -106 450 -191 502 -251 764 -489 732 -667 -24
-134 -183 -293 -452 -452 -232 -138 -636 -320 -816 -368 l-68 -18 -81 85
c-359 378 -557 659 -557 790 0 124 169 367 512 733 87 92 126 127 143 127 13
0 74 -17 137 -39z"/>
</g>
</svg>
